<svg xmlns="http://www.w3.org/2000/svg" viewBox="0 0 220 48" width="220" height="48">
  <!-- Microsoft Fabric green logo mark -->
  <g transform="translate(0, 4)">
    <path d="M10 2 C10 2 22 2 26 8 C30 14 24 20 20 24 C16 28 10 32 10 32 L10 38 C10 38 20 34 26 28 C32 22 34 14 30 6 C26 -2 16 0 10 0 Z" fill="#00B294"/>
    <path d="M20 2 C20 2 28 4 30 10 C32 16 28 22 24 26 C20 30 16 34 14 38 L20 38 C20 38 26 32 30 26 C34 20 36 12 32 6 C28 0 22 0 20 0 Z" fill="#40D9B8" opacity="0.7"/>
  </g>
  <text x="44" y="22" font-family="Segoe UI, Arial, sans-serif" font-size="13" font-weight="700" fill="#000000">Microsoft Fabric</text>
  <text x="44" y="38" font-family="Segoe UI, Arial, sans-serif" font-size="11" font-weight="500" fill="#666666">Solution Catalog</text>
</svg>
